name Walk2.mot
datacolumns 19
datarows 25
range 4.10500000 4.22500000
endheader

                time	   L_ground_force_vx	   L_ground_force_vy	   L_ground_force_vz	   L_ground_force_px	   L_ground_force_py	   L_ground_force_pz	   R_ground_force_vx	   R_ground_force_vy	   R_ground_force_vz	   R_ground_force_px	   R_ground_force_py	   R_ground_force_pz	   L_ground_torque_x	   L_ground_torque_y	   L_ground_torque_z	   R_ground_torque_x	   R_ground_torque_y	   R_ground_torque_z	
          4.10500000	          0.00807143	          0.03577726	          0.00275625	         -0.00009174	          0.00000000	         -0.00002593	         -9.74915421	        938.08648878	        -57.88133445	          0.36729284	          0.00000000	          0.12363780	          0.00000000	          0.00004528	          0.00000000	          0.00000000	          5.37962708	          0.00000000	
          4.11000000	          0.00305486	          0.01846213	          0.00174498	         -0.00007004	          0.00000000	         -0.00002129	         -7.86955727	        931.14073063	        -57.18021373	          0.36798214	          0.00000000	          0.12357026	          0.00000000	          0.00004788	          0.00000000	          0.00000000	          5.02377730	          0.00000000	
          4.11500000	         -0.00040378	          0.00589814	          0.00095846	         -0.00005058	          0.00000000	         -0.00001662	         -6.03538720	        924.44956700	        -56.69198424	          0.36871804	          0.00000000	          0.12351750	          0.00000000	          0.00004577	          0.00000000	          0.00000000	          4.69101522	          0.00000000	
          4.12000000	         -0.00258980	         -0.00262537	          0.00037828	         -0.00003410	          0.00000000	         -0.00001232	         -4.23710733	        918.12112722	        -56.40075547	          0.36949113	          0.00000000	          0.12347938	          0.00000000	          0.00004079	          0.00000000	          0.00000000	          4.38120955	          0.00000000	
          4.12500000	         -0.00378683	         -0.00788370	         -0.00002369	         -0.00002084	          0.00000000	         -0.00000859	         -2.46320936	        912.27350452	        -56.27699926	          0.37029303	          0.00000000	          0.12345478	          0.00000000	          0.00003437	          0.00000000	          0.00000000	          4.09292446	          0.00000000	
          4.13000000	         -0.00425497	         -0.01063226	         -0.00027960	         -0.00001068	          0.00000000	         -0.00000551	         -0.70160837	        907.02682017	        -56.28174048	          0.37111668	          0.00000000	          0.12344188	          0.00000000	          0.00002754	          0.00000000	          0.00000000	          3.82350300	          0.00000000	
          4.13500000	         -0.00421866	         -0.01155398	         -0.00042159	         -0.00000333	          0.00000000	         -0.00000310	          1.05918045	        902.49112066	        -56.37302249	          0.37195547	          0.00000000	          0.12343819	          0.00000000	          0.00002098	          0.00000000	          0.00000000	          3.56935237	          0.00000000	
          4.14000000	         -0.00386174	         -0.01123127	         -0.00047931	          0.00000165	          0.00000000	         -0.00000132	          2.82881618	        898.75543990	        -56.51160177	          0.37280442	          0.00000000	          0.12344132	          0.00000000	          0.00001511	          0.00000000	          0.00000000	          3.32654564	          0.00000000	
          4.14500000	         -0.00332743	         -0.01013607	         -0.00047841	          0.00000472	          0.00000000	         -0.00000006	          4.61279824	        895.88398903	        -56.66537563	          0.37366170	          0.00000000	          0.12344907	          0.00000000	          0.00001015	          0.00000000	          0.00000000	          3.09173284	          0.00000000	
          4.15000000	         -0.00272163	         -0.00863210	         -0.00044000	          0.00000631	          0.00000000	          0.00000074	          6.41159007	        893.91221564	        -56.81252334	          0.37452901	          0.00000000	          0.12345949	          0.00000000	          0.00000617	          0.00000000	          0.00000000	          2.86223389	          0.00000000	
          4.15500000	         -0.00211789	         -0.00698494	         -0.00038057	          0.00000683	          0.00000000	          0.00000120	          8.22056071	        892.84333928	        -56.94168865	          0.37541144	          0.00000000	          0.12347196	          0.00000000	          0.00000313	          0.00000000	          0.00000000	          2.63579327	          0.00000000	
          4.16000000	         -0.00156323	         -0.00537622	         -0.00031236	          0.00000662	          0.00000000	          0.00000140	         10.03117976	        892.65021179	        -57.05019526	          0.37631555	          0.00000000	          0.12348689	          0.00000000	          0.00000093	          0.00000000	          0.00000000	          2.41085173	          0.00000000	
          4.16500000	         -0.00108390	         -0.00391939	         -0.00024391	          0.00000597	          0.00000000	          0.00000142	         11.83272514	        893.28192076	        -57.14034548	          0.37724869	          0.00000000	          0.12350487	          0.00000000	         -0.00000055	          0.00000000	          0.00000000	          2.18658471	          0.00000000	
          4.17000000	         -0.00069079	         -0.00267517	         -0.00018073	          0.00000508	          0.00000000	          0.00000132	         13.61378879	        894.66991425	        -57.21537599	          0.37821934	          0.00000000	          0.12352690	          0.00000000	         -0.00000146	          0.00000000	          0.00000000	          1.96251177	          0.00000000	
          4.17500000	         -0.00038407	         -0.00166571	         -0.00012592	          0.00000410	          0.00000000	          0.00000115	         15.36404662	        896.73407325	        -57.27649675	          0.37923580	          0.00000000	          0.12355496	          0.00000000	         -0.00000193	          0.00000000	          0.00000000	          1.73849009	          0.00000000	
          4.18000000	         -0.00015700	         -0.00088662	         -0.00008081	          0.00000315	          0.00000000	          0.00000095	         17.07506464	        899.38763563	        -57.32080229	          0.38030632	          0.00000000	          0.12359166	          0.00000000	         -0.00000207	          0.00000000	          0.00000000	          1.51436496	          0.00000000	
          4.18500000	          0.00000104	         -0.00031688	         -0.00004549	          0.00000230	          0.00000000	          0.00000075	         18.74009000	        902.54672660	        -57.33947243	          0.38144027	          0.00000000	          0.12363924	          0.00000000	         -0.00000200	          0.00000000	          0.00000000	          1.28938024	          0.00000000	
          4.19000000	          0.00010230	          0.00007354	         -0.00001924	          0.00000156	          0.00000000	          0.00000056	         20.35430831	        906.13625711	        -57.31899850	          0.38264750	          0.00000000	          0.12369888	          0.00000000	         -0.00000180	          0.00000000	          0.00000000	          1.06224964	          0.00000000	
          4.19500000	          0.00015915	          0.00031809	         -0.00000089	          0.00000097	          0.00000000	          0.00000039	         21.91479585	        910.08824443	        -57.24466043	          0.38393655	          0.00000000	          0.12377107	          0.00000000	         -0.00000153	          0.00000000	          0.00000000	          0.83180254	          0.00000000	
          4.20000000	          0.00018301	          0.00044976	          0.00001095	          0.00000051	          0.00000000	          0.00000025	         23.42067140	        914.33749692	        -57.10416562	          0.38531327	          0.00000000	          0.12385686	          0.00000000	         -0.00000123	          0.00000000	          0.00000000	          0.59716938	          0.00000000	
          4.20500000	          0.00018385	          0.00049863	          0.00001768	          0.00000018	          0.00000000	          0.00000015	         24.87463479	        918.81456651	        -56.89070881	          0.38677979	          0.00000000	          0.12395812	          0.00000000	         -0.00000094	          0.00000000	          0.00000000	          0.35725418	          0.00000000	
          4.21000000	          0.00016984	          0.00049053	          0.00002059	         -0.00000005	          0.00000000	          0.00000007	         26.28525592	        923.44067296	        -56.60494110	          0.38833491	          0.00000000	          0.12407767	          0.00000000	         -0.00000069	          0.00000000	          0.00000000	          0.11054249	          0.00000000	
          4.21500000	          0.00014742	          0.00044654	          0.00002083	         -0.00000019	          0.00000000	          0.00000001	         27.66675784	        928.12599184	        -56.25647611	          0.38997585	          0.00000000	          0.12421889	          0.00000000	         -0.00000047	          0.00000000	          0.00000000	         -0.14496132	          0.00000000	
          4.22000000	          0.00012139	          0.00038302	          0.00001934	         -0.00000027	          0.00000000	         -0.00000003	         29.03489311	        932.77031776	        -55.86281612	          0.39170004	          0.00000000	          0.12438501	          0.00000000	         -0.00000029	          0.00000000	          0.00000000	         -0.41136969	          0.00000000	
          4.22500000	          0.00009510	          0.00031199	          0.00001685	         -0.00000029	          0.00000000	         -0.00000005	         30.40222101	        937.26938736	        -55.44692163	          0.39350605	          0.00000000	          0.12457954	          0.00000000	         -0.00000015	          0.00000000	          0.00000000	         -0.69003345	          0.00000000	
